HIERARCHY
ROOT Hips
{
	OFFSET 0.00000 0.00000 0.00000
	CHANNELS 6 Xposition Yposition Zposition Zrotation Yrotation Xrotation 
	JOINT LHipJoint
	{
		OFFSET 0 0 0
		CHANNELS 3 Zrotation Yrotation Xrotation
		JOINT LeftUpLeg
		{
			OFFSET 1.28858 -1.83292 1.03970
			CHANNELS 3 Zrotation Yrotation Xrotation
			JOINT LeftLeg
			{
				OFFSET 2.47846 -6.80952 0.00000
				CHANNELS 3 Zrotation Yrotation Xrotation
				JOINT LeftFoot
				{
					OFFSET 2.75274 -7.56311 0.00000
					CHANNELS 3 Zrotation Yrotation Xrotation
					JOINT LeftToeBase
					{
						OFFSET 0.12848 -0.35301 1.68223
						CHANNELS 3 Zrotation Yrotation Xrotation
						End Site
						{
							OFFSET 0.00000 -0.00000 0.87311
						}
					}
				}
			}
		}
	}
	JOINT RHipJoint
	{
		OFFSET 0 0 0
		CHANNELS 3 Zrotation Yrotation Xrotation
		JOINT RightUpLeg
		{
			OFFSET -1.31183 -1.83292 1.03970
			CHANNELS 3 Zrotation Yrotation Xrotation
			JOINT RightLeg
			{
				OFFSET -2.44740 -6.72417 0.00000
				CHANNELS 3 Zrotation Yrotation Xrotation
				JOINT RightFoot
				{
					OFFSET -2.67343 -7.34519 0.00000
					CHANNELS 3 Zrotation Yrotation Xrotation
					JOINT RightToeBase
					{
						OFFSET -0.16914 -0.46471 1.77626
						CHANNELS 3 Zrotation Yrotation Xrotation
						End Site
						{
							OFFSET -0.00000 -0.00000 0.92777
						}
					}
				}
			}
		}
	}
	JOINT LowerBack
	{
		OFFSET 0 0 0
		CHANNELS 3 Zrotation Yrotation Xrotation
		JOINT Spine
		{
			OFFSET 0.01249 2.14252 0.03842
			CHANNELS 3 Zrotation Yrotation Xrotation
			JOINT Spine1
			{
				OFFSET -0.02957 2.14199 -0.03751
				CHANNELS 3 Zrotation Yrotation Xrotation
				JOINT Neck
				{
					OFFSET 0 0 0
					CHANNELS 3 Zrotation Yrotation Xrotation
					JOINT Neck1
					{
						OFFSET -0.01678 1.65709 -0.05476
						CHANNELS 3 Zrotation Yrotation Xrotation
						JOINT Head
						{
							OFFSET 0.07912 1.58331 -0.11843
							CHANNELS 3 Zrotation Yrotation Xrotation
							End Site
							{
								OFFSET 0.03298 1.73940 -0.04271
							}
						}
					}
				}
				JOINT LeftShoulder
				{
					OFFSET 0 0 0
					CHANNELS 3 Zrotation Yrotation Xrotation
					JOINT LeftArm
					{
						OFFSET 3.39556 1.16496 0.08673
						CHANNELS 3 Zrotation Yrotation Xrotation
						JOINT LeftForeArm
						{
							OFFSET 5.23910 -0.00000 -0.00000
							CHANNELS 3 Zrotation Yrotation Xrotation
							JOINT LeftHand
							{
								OFFSET 3.31467 -0.00000 0.00000
								CHANNELS 3 Zrotation Yrotation Xrotation
								JOINT LeftFingerBase
								{
									OFFSET 0 0 0
									CHANNELS 3 Zrotation Yrotation Xrotation
									JOINT LeftHandIndex1
									{
										OFFSET 0.96590 -0.00000 0.00000
										CHANNELS 3 Zrotation Yrotation Xrotation
										End Site
										{
											OFFSET 0.77873 -0.00000 0.00000
										}
									}
								}
								JOINT LThumb
								{
									OFFSET 0 0 0
									CHANNELS 3 Zrotation Yrotation Xrotation
									End Site
									{
										OFFSET 0.79062 -0.00000 0.79062
									}
								}
							}
						}
					}
				}
				JOINT RightShoulder
				{
					OFFSET 0 0 0
					CHANNELS 3 Zrotation Yrotation Xrotation
					JOINT RightArm
					{
						OFFSET -3.27193 1.31331 0.33940
						CHANNELS 3 Zrotation Yrotation Xrotation
						JOINT RightForeArm
						{
							OFFSET -5.30252 -0.00000 0.00000
							CHANNELS 3 Zrotation Yrotation Xrotation
							JOINT RightHand
							{
								OFFSET -3.67875 -0.00000 0.00000
								CHANNELS 3 Zrotation Yrotation Xrotation
								JOINT RightFingerBase
								{
									OFFSET 0 0 0
									CHANNELS 3 Zrotation Yrotation Xrotation
									JOINT RightHandIndex1
									{
										OFFSET -0.59481 -0.00000 0.00000
										CHANNELS 3 Zrotation Yrotation Xrotation
										End Site
										{
											OFFSET -0.47955 -0.00000 0.00000
										}
									}
								}
								JOINT RThumb
								{
									OFFSET 0 0 0
									CHANNELS 3 Zrotation Yrotation Xrotation
									End Site
									{
										OFFSET -0.48687 -0.00000 0.48687
									}
								}
							}
						}
					}
				}
			}
		}
	}
}
MOTION
Frames: 7
Frame Time: 0.0444444
0.00 0.00 0.00 -37.2917 46.5344 123.5850 0.0000 0.0000 0.0000 69.3396 -16.6183 -20.0952 0.0761 -1.7799 -4.8978 11.2128 -8.5540 -63.8568 8.4629 16.4494 54.2134 0.0000 0.0000 0.0000 3.2172 5.9813 22.8251 -0.2247 -3.0513 8.4216 6.2973 -43.0909 1.3913 -2.6569 -10.1178 29.3592 -2.0508 -3.8732 1.3567 -6.8048 -5.6988 -4.4215 -5.6107 -2.9044 -5.8934 -0.8822 -10.3917 1.0678 9.2260 -14.7877 -36.0691 4.8251 -7.7225 -11.0408 0.0000 0.0000 0.0000 52.3261 -48.9277 -82.1150 17.5386 -27.5623 -4.3336 -0.0000 -0.0000 5.4870 74.9694 -27.7940 -60.0639 -7.1250 0.0000 -0.0000 24.6876 -29.5991 -35.7329 0.0000 0.0000 0.0000 -49.5744 28.6687 -76.6099 -24.5785 35.7701 -8.0422 0.0000 0.0000 27.5953 -46.9568 -39.4715 34.2419 7.1250 -0.0000 -0.0000 -29.2059 -79.0794 23.4352
0.00 0.00 0.00 -34.6498 52.0806 129.9280 0.0000 0.0000 0.0000 64.9683 -34.9437 -9.0164 0.1834 -2.7585 -7.6072 15.6694 -12.2338 -77.3503 8.3150 16.3461 53.6897 0.0000 0.0000 0.0000 1.1510 9.1343 25.0884 -0.0461 -1.3851 3.8092 8.3389 -43.9669 -17.6932 -4.4609 -12.7497 38.4385 -2.3533 -4.1652 0.1021 -6.1860 -6.1159 -5.5372 -4.8189 -3.0942 -6.2950 0.2486 -11.1203 0.3092 9.1019 -15.8572 -35.5578 4.5690 -8.3052 -10.7644 0.0000 0.0000 0.0000 54.1903 -46.7278 -80.6401 17.1780 -27.0919 -4.1681 -0.0000 -0.0000 6.1515 77.2025 -27.3262 -63.6731 -7.1250 0.0000 -0.0000 26.3620 -31.9791 -38.6977 0.0000 0.0000 0.0000 -46.8830 26.1262 -74.4002 -23.5559 34.6911 -7.4523 0.0000 0.0000 26.2563 -48.0237 -38.9089 34.9203 7.1250 -0.0000 -0.0000 -32.3593 -78.7696 25.8444
0.00 0.00 0.00 -31.8049 57.2956 135.4220 0.0000 0.0000 0.0000 58.3515 -43.8847 0.1418 0.2378 -3.1381 -8.6634 19.3977 -14.4379 -88.2471 8.0983 16.1911 52.9161 0.0000 0.0000 0.0000 0.9887 13.4384 26.3917 -0.0051 -0.4632 1.2727 6.4572 -41.5584 -31.9737 -5.7883 -14.2200 44.1260 -1.4179 -3.9442 -0.9745 -5.3805 -5.7778 -6.3814 -4.5622 -2.9747 -6.5531 -0.5585 -11.4764 0.0269 9.8682 -16.1787 -34.8775 4.8584 -8.4447 -10.2603 -0.0000 -0.0000 0.0000 53.5684 -45.4835 -78.7115 17.4875 -27.4959 -4.3100 -0.0000 -0.0000 6.4505 78.0435 -27.1872 -65.1333 -7.1250 0.0000 -0.0000 27.0178 -32.9723 -39.8538 -0.0000 -0.0000 0.0000 -45.3694 24.0467 -73.5559 -22.2378 33.2447 -6.7157 0.0000 0.0000 25.8205 -47.7885 -39.2814 34.9136 7.1250 -0.0000 -0.0000 -31.9036 -79.0971 25.6713
0.00 0.00 0.00 -28.8672 63.4440 141.7570 0.0000 0.0000 0.0000 47.7369 -42.0783 6.4105 0.2112 -2.9586 -8.1636 19.2689 -15.0578 -87.8699 7.7981 15.9687 51.8323 0.0000 0.0000 0.0000 -1.2515 19.3095 27.4468 -0.0090 0.6130 -1.6846 1.3055 -37.2149 -47.1194 -6.7944 -15.1563 48.0923 -1.8788 -4.2073 -2.3713 -4.5163 -6.1173 -7.3043 -3.4601 -3.0990 -6.6160 0.2872 -11.3118 -1.0310 9.6212 -15.7649 -33.6142 4.4324 -8.3098 -9.7207 -0.0000 0.0000 0.0000 55.8941 -41.9678 -77.7875 16.1571 -25.7332 -3.7139 -0.0000 -0.0000 7.3792 79.0867 -27.4797 -67.3224 -7.1250 0.0000 -0.0000 27.6945 -34.6891 -41.0594 -0.0000 0.0000 0.0000 -45.4777 23.9783 -76.5187 -19.8601 30.4734 -5.4602 0.0000 0.0000 24.5925 -47.2618 -40.0678 34.8623 7.1250 -0.0000 -0.0000 -30.7493 -79.7786 25.1210
0.00 0.00 0.00 -20.9411 71.1063 151.8880 0.0000 0.0000 0.0000 41.9982 -31.6721 7.2694 0.1208 -2.2409 -6.1719 13.8686 -10.6635 -72.0040 7.9171 16.0579 52.2634 0.0000 0.0000 0.0000 -2.4846 25.5045 27.6060 -0.0382 1.2621 -3.4702 -4.8063 -32.1270 -59.5061 -7.2859 -15.5680 49.9477 -0.2895 -4.0544 -2.7176 -2.8117 -5.8411 -7.8057 -2.5695 -3.0249 -6.8989 -0.5306 -11.4134 -1.7027 10.4577 -15.6717 -33.0216 4.6931 -8.2270 -9.2153 0.0000 0.0000 0.0000 54.6805 -37.9296 -75.0779 16.0495 -25.5878 -3.6673 -0.0000 -0.0000 7.6131 79.8748 -27.4625 -68.8317 -7.1250 0.0000 -0.0000 28.3190 -35.7737 -42.1309 0.0000 0.0000 0.0000 -48.8930 25.2453 -82.0621 -16.7212 26.4888 -3.9622 0.0000 0.0000 25.1816 -46.0851 -40.3019 33.8929 7.1250 -0.0000 -0.0000 -26.7428 -79.7087 21.7451
0.00 0.00 0.00 -5.0218 78.5577 168.9220 0.0000 0.0000 0.0000 36.1506 -23.8184 9.4559 0.0359 -1.2227 -3.3618 9.1700 -6.6775 -57.2654 8.1095 16.1992 52.9562 0.0000 0.0000 0.0000 -7.1182 29.5734 24.7984 -0.0488 1.4254 -3.9202 -8.5893 -26.8363 -65.6841 -8.2160 -16.2758 53.3370 1.6532 -3.6361 -2.2058 -1.4051 -5.1840 -8.0864 -2.1496 -2.7883 -7.4979 -0.4667 -11.1703 -2.9820 9.2868 -15.4170 -32.1843 4.1111 -7.8838 -8.8262 0.0000 0.0000 0.0000 56.1360 -34.0341 -74.3816 14.7134 -23.7453 -3.1096 -0.0000 -0.0000 8.3780 79.9846 -27.4643 -69.0468 -7.1250 0.0000 -0.0000 28.4064 -35.9302 -42.2795 0.0000 0.0000 0.0000 -54.0388 27.7836 -91.3461 -12.4301 20.4466 -2.2503 0.0000 0.0000 27.8115 -49.5548 -41.5009 37.8596 7.1250 -0.0000 -0.0000 -42.3819 -81.7085 36.4773
0.00 0.00 0.00 39.0526 83.8684 213.5600 0.0000 0.0000 0.0000 28.8433 -20.5217 13.3419 0.0039 -0.4046 -1.1117 6.3832 -3.1001 -47.6050 8.2456 16.2970 53.4426 0.0000 0.0000 0.0000 -15.3889 31.9926 18.6537 -0.0436 1.3474 -3.7053 -10.6390 -23.3883 -69.2361 -8.5688 -16.5221 54.5867 2.5721 -2.9663 -1.5284 0.0559 -4.1271 -8.2560 -1.1373 -2.2705 -7.9644 -0.9827 -11.5826 -3.8206 8.8537 -16.0284 -31.0817 3.9053 -7.9981 -8.2562 0.0000 0.0000 0.0000 56.9716 -31.2844 -75.4113 13.2988 -21.7234 -2.5628 -0.0000 -0.0000 11.5835 78.1590 -27.4896 -65.5720 -7.1250 0.0000 -0.0000 26.9930 -33.4271 -39.8354 0.0000 0.0000 0.0000 -63.3043 30.5696 -122.1548 -7.3640 12.5168 -0.8087 0.0000 0.0000 46.2993 -55.1135 -41.4150 43.4928 7.1250 -0.0000 -0.0000 -70.6845 -81.7770 62.6696
